HIERARCHY
ROOT SimulationBone
{
	OFFSET 0.000000 0.000000 0.000000
	CHANNELS 6 Xposition Yposition Zposition Zrotation Yrotation Xrotation 
	JOINT Hips
	{
		OFFSET 0.000000 0.000000 0.000000
		CHANNELS 6 Xposition Yposition Zposition Zrotation Yrotation Xrotation 
		JOINT RightUpLeg
		{
			OFFSET 0.103456 1.857829 10.548506
			CHANNELS 3 Zrotation Yrotation Xrotation
			JOINT RightLeg
			{
				OFFSET 43.499992 -0.000038 -0.000002
				CHANNELS 3 Zrotation Yrotation Xrotation
				JOINT RightFoot
				{
					OFFSET 42.372192 0.000015 -0.000007
					CHANNELS 3 Zrotation Yrotation Xrotation
					JOINT RightToe
					{
						OFFSET 17.299999 -0.000002 0.000003
						CHANNELS 3 Zrotation Yrotation Xrotation
						End Site
						{
							OFFSET 0.000000 0.000000 0.000000
						}
					}
				}
			}
		}
		JOINT LeftUpLeg
		{
			OFFSET 0.103457 1.857829 -10.548503
			CHANNELS 3 Zrotation Yrotation Xrotation
			JOINT LeftLeg
			{
				OFFSET 43.500042 -0.000027 0.000008
				CHANNELS 3 Zrotation Yrotation Xrotation
				JOINT LeftFoot
				{
					OFFSET 42.372257 -0.000008 0.000014
					CHANNELS 3 Zrotation Yrotation Xrotation
					JOINT LeftToe
					{
						OFFSET 17.299992 -0.000005 0.000004
						CHANNELS 3 Zrotation Yrotation Xrotation
						End Site
						{
							OFFSET 0.000000 0.000000 0.000000
						}
					}
				}
			}
		}
		JOINT Spine
		{
			OFFSET 6.901968 -2.603733 -0.000001
			CHANNELS 3 Zrotation Yrotation Xrotation
			JOINT Spine1
			{
				OFFSET 12.588099 0.000002 0.000000
				CHANNELS 3 Zrotation Yrotation Xrotation
				JOINT Spine2
				{
					OFFSET 12.343206 0.000000 -0.000001
					CHANNELS 3 Zrotation Yrotation Xrotation
					JOINT Neck
					{
						OFFSET 25.832886 -0.000004 0.000003
						CHANNELS 3 Zrotation Yrotation Xrotation
						JOINT Head
						{
							OFFSET 11.766620 0.000005 -0.000001
							CHANNELS 3 Zrotation Yrotation Xrotation
							End Site
							{
								OFFSET 0.000000 0.000000 0.000000
							}
						}
					}
					JOINT RightShoulder
					{
						OFFSET 19.745899 -1.480370 6.000108
						CHANNELS 3 Zrotation Yrotation Xrotation
						JOINT RightArm
						{
							OFFSET 11.284125 -0.000009 -0.000018
							CHANNELS 3 Zrotation Yrotation Xrotation
							JOINT RightForeArm
							{
								OFFSET 33.000050 0.000004 0.000032
								CHANNELS 3 Zrotation Yrotation Xrotation
								JOINT RightHand
								{
									OFFSET 25.200008 0.000015 0.000008
									CHANNELS 3 Zrotation Yrotation Xrotation
									End Site
									{
										OFFSET 0.000000 0.000000 0.000000
									}
								}
							}
						}
					}
					JOINT LeftShoulder
					{
						OFFSET 19.746099 -1.480375 -6.000073
						CHANNELS 3 Zrotation Yrotation Xrotation
						JOINT LeftArm
						{
							OFFSET 11.284138 -0.000015 -0.000012
							CHANNELS 3 Zrotation Yrotation Xrotation
							JOINT LeftForeArm
							{
								OFFSET 33.000092 0.000017 0.000013
								CHANNELS 3 Zrotation Yrotation Xrotation
								JOINT LeftHand
								{
									OFFSET 25.199780 0.000135 0.000422
									CHANNELS 3 Zrotation Yrotation Xrotation
									End Site
									{
										OFFSET 0.000000 0.000000 0.000000
									}
								}
							}
						}
					}
				}
			}
		}
	}
}
MOTION
Frames: 14
Frame Time: 0.016667
43.295089 0.000000 -345.611726 0.000000 85.422915 0.000000 0.126463 89.545052 -0.417321 92.779111 -0.776206 -179.942600 169.408253 -2.291312 165.512682 -31.228293 3.249474 -4.734924 93.400090 2.613830 -4.634680 21.454560 0.003105 0.000016 169.881244 11.843595 -171.935136 -26.049779 -0.371339 -0.835679 83.414197 2.577485 9.210338 21.454550 -0.003084 0.000002 7.184517 0.046715 0.252951 4.356343 0.084012 0.507488 4.038257 0.086940 0.506971 13.896803 -4.035942 11.705330 -8.626787 -6.283453 13.596315 176.729314 -76.292682 1.922111 5.882933 64.029722 9.580245 -39.355600 -12.351808 1.295854 0.310199 -3.082091 18.686013 -143.954837 83.057161 38.015024 -4.994624 -68.751015 -28.782296 -70.956423 17.257750 -2.689551 -6.496506 17.081612 -31.141850 
42.962517 0.000000 -345.778099 0.000000 85.077193 0.000000 0.090509 89.520814 -0.442192 92.794773 -0.820126 -179.758238 169.482109 -1.975950 165.645044 -31.303637 3.216910 -4.964984 93.569779 2.798065 -4.460492 21.454562 0.003103 0.000014 169.984609 12.030750 -172.061565 -25.884519 -0.478882 -0.858272 83.321164 2.656967 9.454019 21.454554 -0.003094 -0.000001 7.198387 0.035146 0.263099 4.384044 0.060433 0.527318 4.065969 0.063481 0.526938 14.186242 -3.581675 11.851846 -8.422509 -6.265968 13.785265 176.438686 -76.323322 2.218262 6.331033 63.085586 12.160536 -40.535769 -12.372729 1.323368 2.192104 4.167384 21.065009 -142.720228 83.014383 39.263950 -7.289564 -67.243456 -28.503114 -71.931154 16.924534 -2.703410 -8.033860 14.122606 -38.013040 
42.641828 0.000000 -345.932432 0.000000 84.781453 0.000000 0.063307 89.483856 -0.488260 92.817861 -0.903053 -179.663551 169.563927 -1.626502 165.590328 -31.378421 3.250925 -5.123384 93.748068 2.930368 -4.295978 21.454562 0.003104 0.000015 169.964954 12.305487 -172.113664 -25.937458 -0.592085 -0.973880 83.279512 2.791315 9.668903 21.454553 -0.003089 0.000000 7.221050 0.015516 0.285718 4.429286 0.020219 0.571795 4.111213 0.023538 0.571662 14.413974 -3.208722 11.963418 -8.307025 -6.272002 13.938750 176.301020 -76.404417 2.356818 6.557403 62.342796 14.047511 -41.620259 -12.029240 1.334368 5.106106 9.164063 22.208702 -142.133608 83.098873 39.853028 -9.224397 -65.795421 -28.225035 -72.999415 16.454720 -2.719024 -7.305967 10.694764 -41.857157 
42.332965 0.000000 -346.077039 0.000000 84.533922 0.000000 0.039726 89.434157 -0.556648 92.838126 -1.038163 -179.640009 169.646039 -1.235120 165.394213 -31.444739 3.315578 -5.220754 93.934694 3.019452 -4.133744 21.454559 0.003105 0.000017 169.829836 12.672902 -172.144250 -26.184082 -0.696577 -1.139653 83.303283 2.950687 9.862225 21.454550 -0.003080 0.000002 7.248818 -0.013474 0.317643 4.484668 -0.039105 0.634516 4.166593 -0.035404 0.634746 14.595489 -2.939087 12.051846 -8.259369 -6.271547 14.059178 176.261407 -76.544079 2.393695 6.594932 61.809540 15.499123 -42.458051 -11.486761 1.323493 7.945197 11.835854 22.485379 -141.875219 83.283648 40.106285 -10.895938 -64.448212 -28.022844 -73.894217 15.975225 -2.724630 -4.856697 7.135261 -43.085486 
42.035870 0.000000 -346.214236 0.000000 84.332840 0.000000 0.014719 89.371696 -0.648360 92.845427 -1.238548 -179.669054 169.721035 -0.794101 165.102283 -31.494428 3.374913 -5.267599 94.129479 3.073984 -3.966357 21.454558 0.003104 0.000018 169.586180 13.138107 -172.206759 -26.600116 -0.778174 -1.312989 83.406321 3.105215 10.041369 21.454550 -0.003077 0.000002 7.277999 -0.053119 0.355709 4.542781 -0.120000 0.709076 4.224705 -0.115848 0.709793 14.746436 -2.794984 12.129179 -8.258453 -6.234821 14.149015 176.265462 -76.750202 2.384290 6.449953 61.491706 16.748540 -42.900308 -10.910505 1.295636 9.715448 12.090243 22.124750 -141.639553 83.539699 40.333496 -12.401696 -63.245193 -27.971843 -74.350925 15.613350 -2.717117 -1.201752 3.515657 -42.043310 
41.750485 0.000000 -346.346339 0.000000 84.176465 0.000000 -0.016208 89.296587 -0.763694 92.829640 -1.514921 -179.736851 169.780277 -0.293997 164.759736 -31.520770 3.401780 -5.279062 94.330655 3.105176 -3.790060 21.454557 0.003100 0.000017 169.221008 13.701236 -172.337241 -27.187934 -0.842916 -1.468511 83.586911 3.238904 10.215510 21.454553 -0.003086 0.000000 7.304950 -0.105252 0.397502 4.596300 -0.226023 0.790560 4.278227 -0.221380 0.791906 14.883390 -2.781658 12.205763 -8.288196 -6.153309 14.216433 176.248932 -77.010273 2.394542 6.137505 61.369961 17.971646 -42.862835 -10.443830 1.262474 9.792797 10.014483 21.413552 -141.206897 83.841076 40.757396 -13.803977 -62.235705 -28.137835 -74.158091 15.475980 -2.698478 3.064383 -0.177079 -39.120874 
41.476752 0.000000 -346.475664 0.000000 84.063075 0.000000 -0.055603 89.209473 -0.900379 92.780419 -1.868556 -179.848631 169.809240 0.282194 164.410508 -31.523115 3.404376 -5.289173 94.529926 3.134640 -3.615894 21.454558 0.003098 0.000015 168.645266 14.343911 -172.500676 -28.055520 -0.979966 -1.647324 83.781749 3.391508 10.400961 21.454557 -0.003097 -0.000002 7.326221 -0.173882 0.443620 4.638246 -0.365192 0.879991 4.320178 -0.360010 0.882167 15.026413 -2.836013 12.284662 -8.352833 -6.103000 14.292617 176.109666 -77.230296 2.530998 5.759586 61.324571 19.165720 -42.515054 -10.144459 1.234274 8.707505 6.637243 20.685976 -140.821842 84.177071 41.131426 -15.029448 -61.485996 -28.539547 -73.311814 15.588648 -2.671227 6.917182 -3.737951 -35.131463 
41.214614 0.000000 -346.604527 0.000000 83.990964 0.000000 -0.105574 89.110244 -1.054695 92.691276 -2.294641 179.993993 169.792529 0.944317 164.087812 -31.509476 3.399650 -5.325083 94.721182 3.179368 -3.454026 21.454557 0.003102 0.000015 167.786157 15.041367 -172.675947 -29.293746 -1.260116 -1.862615 83.926309 3.585047 10.613315 21.454557 -0.003099 -0.000002 7.340635 -0.261806 0.493215 4.666191 -0.543054 0.975569 4.348124 -0.537292 0.978821 15.175034 -2.898030 12.371619 -8.453026 -6.145404 14.405781 175.816984 -77.317654 2.827229 5.395094 61.232140 20.254063 -42.058566 -10.022606 1.214328 7.148344 3.052397 20.184817 -140.723010 84.526607 41.215995 -16.035210 -61.037731 -29.163919 -71.855763 15.960249 -2.634834 9.536192 -6.801337 -30.804762 
40.964012 0.000000 -346.735242 0.000000 83.958451 0.000000 -0.168654 88.995247 -1.219645 92.570100 -2.773074 179.822376 169.715803 1.666598 163.784111 -31.516350 3.404231 -5.367396 94.913209 3.226974 -3.296799 21.454557 0.003107 0.000016 166.709878 15.760194 -172.961154 -30.822488 -1.587026 -1.962950 84.011176 3.713865 10.857915 21.454555 -0.003097 -0.000001 7.355980 -0.364818 0.536629 4.695764 -0.750864 1.058145 4.377691 -0.744596 1.062657 15.242610 -2.988129 12.489538 -8.554126 -6.199998 14.548494 175.674323 -77.268088 2.974015 4.969782 61.062750 21.063245 -41.573680 -9.982906 1.198003 5.501474 -0.394533 19.860361 -140.359437 84.808411 41.570094 -17.029686 -60.820667 -29.930605 -69.822168 16.615362 -2.597143 10.911498 -9.294126 -26.645426 
40.724890 0.000000 -346.870126 0.000000 83.963869 0.000000 -0.245064 88.863461 -1.388045 92.434123 -3.280149 179.669197 169.581949 2.417720 163.502387 -31.569773 3.423451 -5.398702 95.112654 3.266636 -3.134997 21.454557 0.003107 0.000017 165.503736 16.461100 -173.458587 -32.545701 -1.845982 -1.803360 84.017096 3.670451 11.123308 21.454552 -0.003096 -0.000000 7.381299 -0.477543 0.564815 4.745197 -0.977586 1.109773 4.427111 -0.970997 1.115650 15.159584 -3.128307 12.653201 -8.625627 -6.179241 14.703339 175.932560 -77.112859 2.714685 4.410066 60.825653 21.447059 -41.102036 -9.933801 1.181846 4.057726 -3.528218 19.588140 -139.238485 84.951469 42.692819 -18.199649 -60.755450 -30.765587 -67.236061 17.543377 -2.557503 11.242221 -11.132693 -22.991352 
40.497188 0.000000 -347.011493 0.000000 84.005570 0.000000 -0.325492 88.727951 -1.555162 92.325269 -3.793250 179.539686 169.463031 3.180498 163.330437 -31.625339 3.417931 -5.456008 95.303104 3.323662 -2.970549 21.454558 0.003105 0.000018 164.207597 17.101598 -174.175110 -34.465731 -2.047716 -1.407089 83.834014 3.467877 11.342673 21.454551 -0.003095 -0.000000 7.421542 -0.596901 0.580060 4.824481 -1.217205 1.135001 4.506374 -1.210456 1.142321 15.011943 -3.267806 12.826903 -8.690641 -6.108814 14.850199 176.327631 -76.934406 2.316165 3.779894 60.592068 21.448465 -40.650409 -9.904828 1.168316 2.965326 -6.099107 19.321164 -138.358928 84.993577 43.576646 -19.428035 -60.832531 -31.647988 -64.115490 18.573625 -2.502408 10.760108 -11.872511 -19.462175 
40.280850 0.000000 -347.161661 0.000000 84.081922 0.000000 -0.402029 88.601081 -1.714888 92.273603 -4.288960 179.436211 169.418850 3.935435 163.346645 -31.644089 3.352414 -5.571874 95.471194 3.420183 -2.807101 21.454557 0.003105 0.000018 162.836854 17.642503 -175.076048 -36.605270 -2.230553 -0.835631 83.354013 3.144137 11.429477 21.454550 -0.003091 0.000000 7.477769 -0.719084 0.586288 4.935806 -1.462270 1.141688 4.617669 -1.455478 1.150491 14.904735 -3.362351 12.968099 -8.787093 -6.030516 14.968846 176.548507 -76.800929 2.094048 3.156694 60.421892 21.139199 -40.221615 -9.933995 1.159245 2.323189 -7.882078 18.992376 -138.730086 84.997288 43.202698 -20.549801 -61.065535 -32.553325 -60.497714 19.517101 -2.427530 9.774170 -11.111715 -15.707234 
40.075817 0.000000 -347.322944 0.000000 84.191304 0.000000 -0.481881 88.478340 -1.853232 92.236768 -4.740414 179.379978 169.381574 4.636594 163.498924 -31.679642 3.252723 -5.706944 95.638186 3.528967 -2.644659 21.454557 0.003107 0.000018 161.349613 18.059193 -176.063289 -38.972252 -2.410858 -0.145311 82.565709 2.713497 11.268703 21.454550 -0.003088 -0.000000 7.539650 -0.835065 0.582697 5.058655 -1.694566 1.128684 4.740478 -1.687854 1.138898 14.861669 -3.463745 13.060070 -8.957371 -5.937905 15.040748 176.528753 -76.667905 2.117503 2.550977 60.267955 20.535484 -39.838242 -9.971923 1.151640 2.171248 -8.833896 18.400482 -139.808869 84.992641 42.116495 -21.508495 -61.498673 -33.392896 -56.495403 20.270135 -2.328866 8.756119 -8.931008 -12.047118 
39.882032 0.000000 -347.497657 0.000000 84.332106 0.000000 -0.574237 88.355280 -1.959896 92.168498 -5.124376 179.387190 169.278491 5.243901 163.707229 -31.781186 3.156343 -5.812624 95.823587 3.616515 -2.482757 21.454559 0.003110 0.000017 159.713187 18.328573 -177.034343 -41.548800 -2.609884 0.620511 81.479599 2.189483 10.821498 21.454550 -0.003091 0.000000 7.597878 -0.936274 0.568259 5.174545 -1.896786 1.094483 4.856319 -1.890283 1.105925 14.869798 -3.629418 13.101324 -9.221629 -5.811974 15.055003 176.312556 -76.491277 2.342739 1.946220 60.086061 19.657029 -39.514322 -9.962607 1.142654 2.506504 -8.987172 17.371339 -140.827177 84.996736 41.090743 -22.290924 -62.163112 -34.064635 -52.246086 20.752640 -2.211388 8.092105 -5.636734 -8.728212 
